HIERARCHY
ROOT Hips
{
	OFFSET 0.000000 0.000000 0.000000
	CHANNELS 6 Xposition Yposition Zposition Zrotation Yrotation Xrotation 
	JOINT LHipJoint
	{
		OFFSET 0.000000 0.000000 0.000000
		CHANNELS 3 Zrotation Yrotation Xrotation
		JOINT LeftUpLeg
		{
			OFFSET 1.363060 -1.794630 0.839290
			CHANNELS 3 Zrotation Yrotation Xrotation
			JOINT LeftLeg
			{
				OFFSET 2.448110 -6.726130 0.000000
				CHANNELS 3 Zrotation Yrotation Xrotation
				JOINT LeftFoot
				{
					OFFSET 2.562200 -7.039590 0.000000
					CHANNELS 3 Zrotation Yrotation Xrotation
					JOINT LeftToeBase
					{
						OFFSET 0.157640 -0.433110 2.322550
						CHANNELS 3 Zrotation Yrotation Xrotation
						End Site
						{
							OFFSET 0.000000 0.000000 0.000000
						}
					}
				}
			}
		}
	}
	JOINT RHipJoint
	{
		OFFSET 0.000000 0.000000 0.000000
		CHANNELS 3 Zrotation Yrotation Xrotation
		JOINT RightUpLeg
		{
			OFFSET -1.305520 -1.794630 0.839290
			CHANNELS 3 Zrotation Yrotation Xrotation
			JOINT RightLeg
			{
				OFFSET -2.542530 -6.985550 0.000000
				CHANNELS 3 Zrotation Yrotation Xrotation
				JOINT RightFoot
				{
					OFFSET -2.568260 -7.056230 0.000000
					CHANNELS 3 Zrotation Yrotation Xrotation
					JOINT RightToeBase
					{
						OFFSET -0.164730 -0.452590 2.363150
						CHANNELS 3 Zrotation Yrotation Xrotation
						End Site
						{
							OFFSET 0.000000 0.000000 0.000000
						}
					}
				}
			}
		}
	}
	JOINT LowerBack
	{
		OFFSET 0.000000 0.000000 0.000000
		CHANNELS 3 Zrotation Yrotation Xrotation
		JOINT Spine
		{
			OFFSET 0.028270 2.035590 -0.193380
			CHANNELS 3 Zrotation Yrotation Xrotation
			JOINT Spine1
			{
				OFFSET 0.056720 2.048850 -0.042750
				CHANNELS 3 Zrotation Yrotation Xrotation
				JOINT Neck
				{
					OFFSET 0.000000 0.000000 0.000000
					CHANNELS 3 Zrotation Yrotation Xrotation
					JOINT Neck1
					{
						OFFSET -0.054170 1.746240 0.172020
						CHANNELS 3 Zrotation Yrotation Xrotation
						JOINT Head
						{
							OFFSET 0.104070 1.761360 -0.123970
							CHANNELS 3 Zrotation Yrotation Xrotation
							End Site
							{
								OFFSET 0.000000 0.000000 0.000000
							}
						}
					}
				}
				JOINT LeftShoulder
				{
					OFFSET 0.000000 0.000000 0.000000
					CHANNELS 3 Zrotation Yrotation Xrotation
					JOINT LeftArm
					{
						OFFSET 3.362410 1.200890 -0.311210
						CHANNELS 3 Zrotation Yrotation Xrotation
						JOINT LeftForeArm
						{
							OFFSET 4.983000 -0.000000 -0.000000
							CHANNELS 3 Zrotation Yrotation Xrotation
							JOINT LeftHand
							{
								OFFSET 3.483560 -0.000000 -0.000000
								CHANNELS 3 Zrotation Yrotation Xrotation
								JOINT LeftFingerBase
								{
									OFFSET 0.000000 0.000000 0.000000
									CHANNELS 3 Zrotation Yrotation Xrotation
									JOINT LeftHandIndex1
									{
										OFFSET 0.715260 -0.000000 -0.000000
										CHANNELS 3 Zrotation Yrotation Xrotation
										End Site
										{
											OFFSET 0.000000 0.000000 0.000000
										}
									}
								}
								JOINT LThumb
								{
									OFFSET 0.000000 0.000000 0.000000
									CHANNELS 3 Zrotation Yrotation Xrotation
									End Site
									{
										OFFSET 0.000000 0.000000 0.000000
									}
								}
							}
						}
					}
				}
				JOINT RightShoulder
				{
					OFFSET 0.000000 0.000000 0.000000
					CHANNELS 3 Zrotation Yrotation Xrotation
					JOINT RightArm
					{
						OFFSET -3.136600 1.374050 -0.404650
						CHANNELS 3 Zrotation Yrotation Xrotation
						JOINT RightForeArm
						{
							OFFSET -5.241900 -0.000000 -0.000000
							CHANNELS 3 Zrotation Yrotation Xrotation
							JOINT RightHand
							{
								OFFSET -3.444170 -0.000000 -0.000000
								CHANNELS 3 Zrotation Yrotation Xrotation
								JOINT RightFingerBase
								{
									OFFSET 0.000000 0.000000 0.000000
									CHANNELS 3 Zrotation Yrotation Xrotation
									JOINT RightHandIndex1
									{
										OFFSET -0.622530 -0.000000 -0.000000
										CHANNELS 3 Zrotation Yrotation Xrotation
										End Site
										{
											OFFSET 0.000000 0.000000 0.000000
										}
									}
								}
								JOINT RThumb
								{
									OFFSET 0.000000 0.000000 0.000000
									CHANNELS 3 Zrotation Yrotation Xrotation
									End Site
									{
										OFFSET 0.000000 0.000000 0.000000
									}
								}
							}
						}
					}
				}
			}
		}
	}
}
MOTION
Frames: 8
Frame Time: 0.008333
0.641160 15.275684 -13.266790 -3.578531 -1.318760 26.630337 2.002386 -0.956492 -1.245894 -12.073618 -7.655988 -55.633874 12.291336 19.967402 67.893109 0.313204 12.202979 -29.141678 1.031400 -6.459700 -18.124300 -3.462863 0.370098 0.416122 15.992966 18.270663 -53.527575 -12.200018 -20.374844 67.733118 -1.769011 -8.799940 -33.317910 -0.130900 2.331700 -6.423300 -0.493693 1.253342 20.862837 1.784615 2.039099 -3.242460 3.574382 0.791829 -7.079588 -2.627572 -0.207306 -18.094715 2.606676 0.343023 10.918556 -0.172800 0.233800 7.474100 9.257217 3.488898 -0.562204 -92.597296 -12.187400 22.588416 8.971479 -18.363878 -1.526198 -0.059721 -0.506778 -15.004614 31.201114 -8.642355 -4.896600 -7.125000 0.000000 0.000000 3.267700 20.555600 -1.915400 -7.699381 -3.148464 -0.922693 87.732582 10.539409 9.575523 -12.621609 24.036500 -3.173412 0.838910 0.669007 29.266062 -24.009782 -21.552640 9.883300 7.125000 0.000000 0.000000 4.844100 -54.446400 -1.126300 
0.639944 15.404869 -13.089275 -3.561271 -1.046937 25.798798 1.851750 -0.955594 -1.190584 -12.448897 -7.140047 -53.236969 11.700130 19.669497 66.130468 0.194694 12.199471 -28.546199 1.117700 -6.716100 -18.877100 -3.365279 0.386016 0.375136 16.845212 17.521837 -50.759274 -11.534394 -20.005349 65.744725 -1.638065 -9.126470 -32.997613 -0.172900 2.678700 -7.385300 -0.416889 1.138810 20.418400 1.822133 1.913782 -3.263908 3.707119 0.724991 -6.949224 -2.665298 -0.264850 -17.834927 2.724644 0.273207 11.632980 -0.129100 0.228800 7.673400 9.304526 3.448267 -0.570808 -92.550801 -13.467970 24.370462 9.713462 -19.549967 -1.790451 -0.035323 -0.501539 -15.852696 31.249581 -8.633541 -4.898800 -7.125000 0.000000 0.000000 3.290100 20.559700 -1.928200 -7.741181 -3.077936 -0.930862 87.535246 11.861326 11.286422 -13.360985 25.048638 -3.504579 0.820318 0.669229 28.345108 -24.005512 -21.541702 9.869900 7.125000 0.000000 0.000000 4.840300 -54.416300 -1.121900 
0.638323 15.541449 -12.902743 -3.501333 -0.773248 24.915548 1.687114 -0.946491 -1.124800 -12.851950 -6.580312 -50.746639 11.084979 19.335484 64.271701 0.055220 12.173468 -27.789647 1.214100 -6.989700 -19.684800 -3.251734 0.392645 0.330989 17.648327 16.671639 -47.875301 -10.840421 -19.582735 63.632494 -1.478909 -9.464419 -32.541758 -0.222700 3.037600 -8.383400 -0.377039 1.030296 19.916981 1.852627 1.782780 -3.279265 3.832814 0.654992 -6.770190 -2.715895 -0.346885 -17.516376 2.839646 0.172537 12.387865 -0.087000 0.209900 7.871400 9.351074 3.419389 -0.574282 -92.522261 -14.712619 25.987773 10.389334 -20.607282 -2.044728 -0.012067 -0.496429 -16.420008 31.141933 -8.454827 -4.769400 -7.125000 0.000000 0.000000 3.214300 20.775900 -1.868000 -7.787026 -3.016433 -0.932781 87.381431 13.033333 12.906412 -14.095427 26.040044 -3.844593 0.803028 0.670151 27.432798 -24.045712 -21.525782 9.875300 7.125000 0.000000 0.000000 4.788500 -54.391900 -1.107000 
0.636196 15.684616 -12.706889 -3.400170 -0.502008 23.996867 1.511080 -0.927751 -1.048260 -13.272953 -5.964586 -48.198558 10.457618 18.967983 62.344472 -0.094127 12.076092 -26.854547 1.318300 -7.272200 -20.524200 -3.123246 0.388065 0.284825 18.383730 15.720718 -44.916973 -10.131791 -19.109984 61.426798 -1.292178 -9.788930 -31.920197 -0.281400 3.411900 -9.427600 -0.370101 0.930336 19.328090 1.873620 1.649400 -3.286127 3.938948 0.582965 -6.519330 -2.783261 -0.457531 -17.141122 2.955855 0.035079 13.182551 -0.044000 0.174600 8.066300 9.396046 3.403266 -0.572764 -92.519939 -15.946783 27.467139 10.985362 -21.524212 -2.278877 0.009980 -0.491964 -16.980306 30.929279 -8.171442 -4.560000 -7.125000 0.000000 0.000000 3.072000 21.122500 -1.761100 -7.837052 -2.964005 -0.926935 87.280688 14.096677 14.367304 -14.760441 26.926842 -4.162396 0.789150 0.670836 26.590280 -24.160422 -21.507347 9.914700 7.125000 0.000000 0.000000 4.657100 -54.382300 -1.075400 
0.633865 15.834166 -12.501612 -3.262160 -0.238307 23.064743 1.327438 -0.898690 -0.961402 -13.700002 -5.281407 -45.636646 9.828503 18.571303 60.374545 -0.247867 11.883103 -25.713336 1.432500 -7.567600 -21.408100 -2.982548 0.370893 0.238343 19.032369 14.676375 -41.940432 -9.425799 -18.595020 59.171225 -1.083473 -10.052006 -31.098762 -0.348100 3.790700 -10.488500 -0.390971 0.839608 18.612719 1.883416 1.514940 -3.282750 4.014580 0.509261 -6.172531 -2.863496 -0.590942 -16.697403 3.071593 -0.134759 14.001925 -0.000500 0.124600 8.247700 9.439243 3.400033 -0.565759 -92.549215 -17.186420 28.829514 11.481032 -22.279156 -2.480261 0.029388 -0.488206 -17.704156 30.704404 -7.934150 -4.379000 -7.125000 0.000000 0.000000 2.918700 21.415500 -1.653600 -7.891091 -2.921914 -0.912044 87.235375 15.088387 15.659038 -15.302126 27.646247 -4.428338 0.779819 0.671013 25.885700 -24.349221 -21.501623 9.994600 7.125000 0.000000 0.000000 4.451200 -54.404300 -1.030100 
0.631231 15.989289 -12.287318 -3.099114 0.015846 22.143333 1.148436 -0.857959 -0.866536 -14.100142 -4.546249 -43.158222 9.263446 18.183864 58.565948 -0.372881 11.545540 -24.472697 1.552200 -7.863400 -22.300000 -2.841208 0.339318 0.195687 19.579244 13.579148 -39.070521 -8.798542 -18.088913 57.105173 -0.883075 -10.196806 -30.160304 -0.423100 4.174800 -11.568900 -0.433086 0.755798 17.741947 1.881832 1.378046 -3.267733 4.054070 0.432921 -5.712955 -2.945477 -0.739683 -16.179562 3.180969 -0.331655 14.833466 0.039600 0.062300 8.407500 9.480992 3.409461 -0.552826 -92.604606 -18.429871 30.101450 11.873676 -22.878523 -2.644031 0.045667 -0.485390 -18.668311 30.528614 -7.832178 -4.288500 -7.125000 0.000000 0.000000 2.793300 21.547200 -1.574000 -7.948208 -2.891671 -0.887589 87.251414 16.050236 16.782291 -15.670993 28.144432 -4.614706 0.774880 0.669166 25.409567 -24.573769 -21.470485 10.081400 7.125000 0.000000 0.000000 4.199300 -54.409000 -0.972200 
0.628799 16.150592 -12.063905 -2.923111 0.252316 21.237962 0.971856 -0.807793 -0.764642 -14.464436 -3.741038 -40.731959 8.711203 17.780704 56.755562 -0.483008 11.041326 -22.980275 1.677100 -8.158400 -23.196100 -2.697550 0.295833 0.155466 20.033437 12.419069 -36.295020 -8.209410 -17.574541 55.101014 -0.664373 -10.219692 -28.924908 -0.511900 4.586000 -12.731600 -0.486796 0.677071 16.712605 1.868605 1.239396 -3.238519 4.049343 0.354051 -5.132787 -3.018664 -0.890006 -15.584884 3.278405 -0.540827 15.662051 0.074600 -0.005900 8.537200 9.521335 3.430739 -0.533262 -92.676933 -19.669777 31.302758 12.164180 -23.331306 -2.767765 0.058670 -0.483833 -19.823645 30.452251 -7.879079 -4.302300 -7.125000 0.000000 0.000000 2.732100 21.499800 -1.542400 -8.008009 -2.874695 -0.853503 87.333575 17.007063 17.758314 -15.848649 28.406764 -4.709069 0.772609 0.665494 25.220312 -24.752582 -21.414753 10.137300 7.125000 0.000000 0.000000 3.990000 -54.380000 -0.920800 
0.625962 16.238235 -11.849914 -2.746696 0.471207 20.359815 0.826878 -0.754847 -0.672258 -14.727251 -2.966197 -38.679185 8.278414 17.438934 55.285580 -0.562989 10.346135 -21.229758 1.804400 -8.446100 -24.077400 -2.576865 0.245488 0.121598 20.352299 11.307223 -33.967722 -7.767086 -17.147823 53.530081 -0.434691 -10.102689 -27.356441 -0.617700 5.029800 -13.993700 -0.539043 0.599615 15.526742 1.845746 1.098320 -3.193079 3.997602 0.272218 -4.425531 -3.065868 -1.030043 -14.925581 3.347448 -0.747527 16.476067 0.096200 -0.073900 8.633100 9.561172 3.463863 -0.506525 -92.756331 -20.891291 32.449179 12.367046 -23.664571 -2.856485 0.068645 -0.483949 -21.038180 30.465669 -8.066205 -4.412600 -7.125000 0.000000 0.000000 2.728100 21.284900 -1.553400 -8.069770 -2.872918 -0.810800 87.488232 17.972681 18.610077 -15.851456 28.459159 -4.718456 0.770736 0.660441 25.306512 -24.822541 -21.320390 10.126700 7.125000 0.000000 0.000000 3.887200 -54.288800 -0.888400 
